<?xml version="1.0" encoding="utf-8"?>
<!-- Generator: Adobe Illustrator 23.0.3, SVG Export Plug-In . SVG Version: 6.00 Build 0)  -->
<svg version="1.1" id="Ebene_1" xmlns="http://www.w3.org/2000/svg" xmlns:xlink="http://www.w3.org/1999/xlink" x="0px" y="0px"
	 viewBox="0 0 420 420" style="enable-background:new 0 0 420 420;" xml:space="preserve">
<style type="text/css">
	.st0{display:none;}
	.st1{display:inline;fill:none;stroke:#E1402D;stroke-width:30;stroke-miterlimit:10;}
	.st2{display:inline;fill:none;stroke:#FFDA00;stroke-width:30;stroke-miterlimit:10;}
	.st3{display:inline;fill:none;stroke:#EA8603;stroke-width:30;stroke-miterlimit:10;}
	.st4{display:inline;fill:none;stroke:#0A8642;stroke-width:30;stroke-miterlimit:10;}
	.st5{display:inline;fill:none;stroke:#D5EB88;stroke-width:30;stroke-miterlimit:10;}
	.st6{fill:#0A8642;}
	.st7{fill:#EA8603;}
	.st8{fill:#FFDA00;}
	.st9{fill:#D5EB88;}
	.st10{fill:#E1402E;}
	.st11{display:inline;fill:none;}
	.st12{display:inline;}
</style>
<g class="st0">
	<path class="st1" d="M43.5,264.1C66.3,334.3,132.2,385,210,385"/>
	<path class="st2" d="M376.5,264.1C353.7,334.3,287.8,385,210,385"/>
	<path class="st3" d="M312.9,68.4C356.6,100.2,385,151.7,385,210c0,18.9-3,37.1-8.5,54.1"/>
	<path class="st4" d="M312.9,68.4C284,47.4,248.5,35,210,35s-74,12.4-102.9,33.4"/>
	<path class="st5" d="M107.1,68.4C63.4,100.2,35,151.7,35,210c0,18.9,3,37.1,8.5,54.1"/>
</g>
<path class="st6" d="M344.5,92.6l-19.9-51.3l-8.5,11C284.7,31.2,248.2,20,210,20c-17,0-33.7,2.2-49.8,6.6l-17.6,38.2
	C163.6,55.1,186.4,50,210,50c31.5,0,61.6,9,87.7,26.1l-7.8,10.1L344.5,92.6z"/>
<path class="st7" d="M392.9,261.5c4.7-16.7,7.1-34,7.1-51.5c0-30.5-7.4-60.8-21.4-87.6c-3.1-5.9-6.5-11.6-10.2-17.2l-42.1-4.9
	c10.1,10.8,18.8,22.9,25.6,36c11.9,22.9,18,47.7,18,73.8c0,14-1.8,27.9-5.4,41.3l-13.2-4.7l10.8,53.9l42.6-34.8L392.9,261.5z"/>
<path class="st8" d="M349.8,288c-11,19.8-26.2,37-44.8,50.8c-25.7,19-56,29.7-87.9,31l0.4-14l-48,26.9l46.3,29.8l0.4-12.7
	c38.7-1.2,75.5-13.9,106.6-37c13.3-9.8,25.1-21.1,35.2-33.7L349.8,288z"/>
<path class="st9" d="M140.7,45.7l-54.9,3.1L93.4,60c-21.5,16.8-39.5,38.2-52,62.4c-12.7,24.4-19.9,51.6-21.1,79.2l31.1,28.7
	c-0.8-6.7-1.3-13.4-1.3-20.2c0-26.1,6-50.9,18-73.8c10.3-19.8,24.9-37.4,42.4-51.4l7.4,10.9L140.7,45.7z"/>
<path class="st10" d="M115,338.8c-24.5-18.1-43-42.3-54-70.3l13.2-3.9l-40.4-37.3l-14,53.2l12.3-3.6c12.9,34.4,35.2,64,65.1,86
	c13.8,10.2,28.7,18.4,44.4,24.4l36.5-20.5C155.4,362.3,134,352.8,115,338.8z"/>
<g class="st0">
	<path id="SVGID_x5F_1_x5F_" class="st11" d="M12.2,274.3C39.2,357.7,117.5,418,210,418"/>
	<text class="st12">	<textPath  xlink:href="#SVGID_x5F_1_x5F_" startOffset="5.1758%">
<tspan  style="font-family:'IBMPlexSans-Bold'; font-size:11px;">                     Blumen und Kräuter</tspan>	</textPath>
</text>
	<path id="SVGID_x5F_2_x5F_" class="st11" d="M210,418c92.5,0,170.8-60.2,197.8-143.7"/>
	<text class="st12">	<textPath  xlink:href="#SVGID_x5F_2_x5F_" startOffset="1.0742%">
<tspan  style="font-family:'IBMPlexSans-Bold'; font-size:11px;">   Insektenhotel, Vogelhaus, Fledermauskasten</tspan>	</textPath>
</text>
	<path id="SVGID_x5F_3_x5F_" class="st11" d="M327.6,48.2c50,36.3,82.4,95.3,82.4,161.8c0,21.6-3.4,42.4-9.7,61.8"/>
	<text class="st12">	<textPath  xlink:href="#SVGID_x5F_3_x5F_" startOffset="0.3906%">
<tspan  style="font-family:'IBMPlexSans-Bold'; font-size:11px;">                            Feldgehölz</tspan>	</textPath>
</text>
	<path id="SVGID_x5F_4_x5F_" class="st11" d="M92.4,48.2C125.4,24.2,166,10,210,10s84.6,14.2,117.6,38.2"/>
	<text class="st12">	<textPath  xlink:href="#SVGID_x5F_4_x5F_" startOffset="0.6348%">
<tspan  style="font-family:'IBMPlexSans-Bold'; font-size:11px;">                                Obstbäume &amp; Sträucher</tspan>	</textPath>
</text>
	<path id="SVGID_x5F_5_x5F_" class="st11" d="M19.7,271.8C13.4,252.4,10,231.6,10,210c0-66.6,32.5-125.5,82.4-161.8"/>
	<text class="st12">	<textPath  xlink:href="#SVGID_x5F_5_x5F_" startOffset="0%">
<tspan  style="font-family:'IBMPlexSans-Bold'; font-size:11px;">                               Wiesen</tspan>	</textPath>
</text>
</g>
<g>
	<g>
		<path d="M49.6,330.1l2.3,3c0.8,1,0.6,2.1-0.3,2.8c-0.9,0.7-1.7,0.5-2.2-0.1l-0.1,0c0.4,0.6,0.7,1.7-0.4,2.5
			c-1,0.7-2.3,0.7-2.9-0.2l-2.5-3.2L49.6,330.1z M45.7,335.3l1.2,1.5c0.3,0.3,0.6,0.4,1,0.1l0.3-0.2c0.3-0.3,0.4-0.6,0.1-1l-1.2-1.5
			L45.7,335.3z M48.2,333.4l1,1.3c0.3,0.3,0.6,0.4,1,0.1l0.3-0.2c0.3-0.3,0.4-0.6,0.1-1l-1-1.3L48.2,333.4z"/>
		<path d="M49,341.7c-0.7-0.9-0.6-1.6,0.2-2.3l5.1-4.1l1,1.3L50,341l0.5,0.6l-1,0.8L49,341.7z"/>
		<path d="M53,345L53,345c-0.6,0.2-1.3,0.2-1.9-0.6c-0.8-0.9-0.5-1.9,0.6-2.9l2.8-2.4l1.1,1.2l-2.7,2.3c-0.5,0.5-0.7,0.9-0.3,1.3
			c0.3,0.4,0.9,0.6,1.3,0.2l2.9-2.4l1.1,1.2l-4.4,3.7l-1.1-1.2L53,345z"/>
		<path d="M54.3,348l4.2-3.9l1.1,1.2l-0.7,0.7l0,0c0.6-0.3,1.3-0.2,1.9,0.4c0.5,0.6,0.6,1.3,0.2,2l0,0c0.6-0.3,1.5-0.1,2.1,0.5
			c0.8,0.8,0.6,1.8-0.5,2.8l-2.7,2.5l-1.1-1.2l2.6-2.4c0.6-0.5,0.6-0.9,0.3-1.3c-0.3-0.4-0.9-0.5-1.3-0.1l-2.8,2.5l-1.1-1.2l2.6-2.4
			c0.5-0.5,0.6-0.9,0.3-1.3c-0.3-0.3-0.9-0.5-1.3-0.1l-2.7,2.5L54.3,348z"/>
		<path d="M62.7,352.8c1.3-1.3,2.8-1.4,4-0.2c1.4,1.4,0.9,2.9-0.2,4l-0.3,0.3l-2.6-2.6l-0.1,0.1c-0.5,0.5-0.6,1.2,0,1.8
			c0.5,0.5,1,0.5,1.5,0.5l-0.1,1.3c-0.8,0.1-1.6-0.3-2.4-1C61.3,355.7,61.4,354.1,62.7,352.8z M64.4,353.6L64.4,353.6l1.4,1.5
			l0.1-0.1c0.5-0.5,0.6-1.1,0.2-1.5C65.5,353,64.9,353.1,64.4,353.6z"/>
		<path d="M65.3,359.4l4-4.2l1.2,1.1l-0.7,0.7l0,0c0.6-0.3,1.3-0.3,1.9,0.3c0.9,0.8,0.7,1.8-0.3,2.9l-2.5,2.6l-1.2-1.1l2.4-2.5
			c0.5-0.5,0.6-0.9,0.2-1.4c-0.4-0.4-0.9-0.5-1.3-0.1l-2.6,2.7L65.3,359.4z"/>
		<path d="M75.2,367.1L75.2,367.1c-0.6,0.3-1.3,0.4-2-0.3c-0.9-0.8-0.8-1.8,0.1-2.9l2.4-2.7l1.2,1.1l-2.3,2.6
			c-0.5,0.5-0.5,1-0.1,1.4c0.4,0.3,1,0.5,1.3,0l2.5-2.8l1.2,1.1l-3.8,4.4l-1.2-1.1L75.2,367.1z"/>
		<path d="M76.9,369.9l3.6-4.5l1.3,1l-0.6,0.8l0.1,0c0.5-0.3,1.2-0.4,1.9,0.2c0.9,0.7,0.9,1.8,0,2.9l-2.3,2.8l-1.3-1l2.2-2.7
			c0.5-0.6,0.5-1,0.1-1.4c-0.4-0.3-1-0.4-1.3,0l-2.4,2.9L76.9,369.9z"/>
		<path d="M85.3,375.3L85.3,375.3c-0.6,0.4-1.3,0.4-1.9-0.1c-1.2-0.9-1.1-2.2,0.1-3.8c1.2-1.6,2.4-1.9,3.6-1
			c0.6,0.5,0.8,1.2,0.6,1.8l0,0l2-2.6l1.3,1l-4.9,6.5l-1.3-1L85.3,375.3z M86,374.5l1-1.4c0.3-0.4,0.2-0.9-0.3-1.3s-1.1-0.3-1.6,0.3
			l-0.6,0.8c-0.4,0.6-0.4,1.2,0.1,1.6C85.1,374.9,85.6,374.9,86,374.5z"/>
		<path d="M93.5,378.3l-1.5,0.4l-1.2,1.8l-1.4-1l4.4-6.3l1.4,1l-2.1,3l0.1,0l1.7-0.6l2.7-0.8l1.6,1.1l-3.9,1.1l-0.3,5.3l-1.6-1.1
			L93.5,378.3z"/>
		<path d="M95.5,383.7l3.1-4.8l1.4,0.9l-0.7,1.1l0,0c0.5-0.5,1.2-0.7,1.9-0.2l0.2,0.2l-0.8,1.3l-0.3-0.2c-0.8-0.5-1.3-0.6-1.7,0
			l-1.8,2.8L95.5,383.7z"/>
		<path d="M102.7,388.2c-0.5-0.3-0.6-0.9-0.4-1.4l-0.1,0c-0.5,0.5-1.3,0.5-2,0.1c-1-0.6-1.2-1.5-0.6-2.4c0.6-1,1.8-1,3.1-0.2
			l0.8,0.5l0.2-0.3c0.3-0.5,0.2-0.9-0.3-1.3c-0.6-0.3-1-0.2-1.4-0.1l-0.4-1.2c0.8-0.3,1.5-0.3,2.6,0.3c1.4,0.9,1.7,1.9,1,3.1
			l-1.3,2.2l0.5,0.3l-0.7,1.1L102.7,388.2z M102.5,386.1l0.4-0.6l-0.7-0.4c-0.5-0.3-0.9-0.3-1.2,0.1l-0.1,0.1
			c-0.2,0.4-0.1,0.7,0.3,0.9C101.7,386.5,102.2,386.5,102.5,386.1z M102.9,379.8l0.1-0.2c0.2-0.3,0.6-0.5,1.1-0.1
			c0.6,0.3,0.6,0.7,0.4,1.1l-0.1,0.2c-0.2,0.3-0.6,0.5-1.1,0.1S102.7,380.2,102.9,379.8z M105,381.1l0.1-0.2
			c0.2-0.3,0.6-0.5,1.1-0.1c0.6,0.3,0.6,0.7,0.4,1.1l-0.1,0.2c-0.2,0.3-0.6,0.5-1.1,0.1C104.8,381.8,104.8,381.4,105,381.1z"/>
		<path d="M107.8,390.1L107.8,390.1c-0.5,0.4-1.2,0.6-2,0.1c-1-0.6-1.2-1.6-0.4-2.9l1.8-3.1l1.4,0.8l-1.7,3
			c-0.4,0.6-0.3,1.1,0.2,1.4c0.4,0.3,1,0.3,1.3-0.2l1.9-3.3l1.4,0.8l-2.9,5l-1.4-0.8L107.8,390.1z"/>
		<path d="M111.8,393.4c-1-0.5-1.2-1.3-0.7-2.3l1.3-2.5l-0.7-0.4l0.6-1.1l0.4,0.2c0.4,0.2,0.6,0.1,0.8-0.3l0.4-0.8l1.3,0.7l-0.7,1.4
			l1,0.5l-0.6,1.1l-1-0.5l-1.5,2.9l0.9,0.5l-0.6,1.1L111.8,393.4z"/>
		<path d="M114.6,391.7c0.8-1.6,2.2-2.2,3.8-1.5c1.7,0.9,1.8,2.5,1.1,3.8l-0.2,0.4l-3.3-1.7l0,0.1c-0.3,0.7-0.2,1.3,0.6,1.7
			c0.6,0.3,1.1,0.2,1.6,0l0.3,1.3c-0.7,0.3-1.6,0.2-2.6-0.2C114.1,394.8,113.8,393.3,114.6,391.7z M116.4,391.9L116.4,391.9l1.8,1
			l0-0.1c0.3-0.6,0.2-1.2-0.3-1.5C117.3,391,116.7,391.2,116.4,391.9z"/>
		<path d="M119.1,397.2l2.5-5.2l1.5,0.7l-0.5,1.1l0,0c0.4-0.5,1.1-0.9,1.9-0.5l0.3,0.1l-0.7,1.4l-0.4-0.2c-0.9-0.4-1.4-0.4-1.6,0.2
			l-1.5,3L119.1,397.2z"/>
	</g>
	<g>
		<path d="M221.2,417.7l-0.1-1.3l1-0.1l-0.3-5l-1,0.1l-0.1-1.3l3.6-0.2l0.1,1.3l-1,0.1l0.3,5l1-0.1l0.1,1.3L221.2,417.7z"/>
		<path d="M226.2,417.4l-0.5-5.8l1.6-0.1l0.1,1l0.1,0c0.2-0.6,0.6-1.2,1.5-1.2c1.2-0.1,1.9,0.7,2,2.1l0.3,3.6l-1.6,0.1l-0.3-3.5
			c-0.1-0.7-0.3-1.1-0.9-1c-0.5,0-1,0.4-1,0.9l0.3,3.7L226.2,417.4z"/>
		<path d="M232.1,415.9l0.8-1.1c0.5,0.4,1,0.6,1.6,0.6c0.6-0.1,0.8-0.3,0.8-0.6c0-0.3-0.2-0.4-0.6-0.4l-0.6,0c-1.3,0-2-0.5-2.1-1.5
			c-0.1-1.1,0.6-2,2-2.1c1.2-0.1,1.8,0.1,2.4,0.6l-0.8,1.1c-0.4-0.3-0.9-0.5-1.4-0.4c-0.5,0.1-0.7,0.3-0.7,0.6
			c0,0.3,0.2,0.5,0.7,0.5l0.7,0c1.3,0,2,0.5,2.1,1.5c0.1,1.1-0.8,2-2.2,2.2C233.5,416.8,232.7,416.5,232.1,415.9z"/>
		<path d="M237.3,413.3c-0.3-1.8,0.5-3.1,2.2-3.4c1.9-0.3,2.9,1,3.1,2.5l0.1,0.5l-3.7,0.5l0,0.1c0.1,0.8,0.6,1.2,1.4,1
			c0.7-0.1,1-0.5,1.3-0.9l1,0.9c-0.4,0.7-1.2,1.1-2.3,1.3C238.7,416.2,237.6,415.1,237.3,413.3z M238.9,412.4L238.9,412.4l2-0.2
			l0-0.1c-0.1-0.7-0.5-1.1-1.1-1C239.1,411.2,238.8,411.7,238.9,412.4z"/>
		<path d="M242.7,407.2l1.6-0.3l0.8,4.7l0.1,0l0.5-1.2l0.9-1.6l1.8-0.3l-1.5,2.5l2.7,3.1l-1.9,0.3l-1.7-2.2l-0.6,0.9l0.3,1.6
			l-1.6,0.3L242.7,407.2z"/>
		<path d="M252.2,413.7c-1.1,0.2-1.8-0.2-2-1.3l-0.6-2.8l-0.8,0.2l-0.3-1.2l0.4-0.1c0.4-0.1,0.5-0.3,0.4-0.7l-0.2-0.9l1.4-0.3
			l0.3,1.5l1.1-0.2l0.3,1.2l-1.1,0.2l0.6,3.2l1-0.2l0.3,1.2L252.2,413.7z"/>
		<path d="M253.3,410.5c-0.4-1.8,0.3-3.2,2-3.5c1.9-0.4,2.9,0.8,3.3,2.3l0.1,0.5l-3.6,0.8l0,0.1c0.2,0.7,0.7,1.1,1.5,0.9
			c0.7-0.2,1-0.5,1.2-1l1,0.8c-0.4,0.7-1.1,1.2-2.1,1.5C254.9,413.3,253.7,412.3,253.3,410.5z M254.8,409.6L254.8,409.6l2-0.4l0-0.1
			c-0.2-0.7-0.6-1.1-1.2-0.9C254.9,408.3,254.6,408.9,254.8,409.6z"/>
		<path d="M260.2,411.9l-1.5-5.6l1.6-0.4l0.2,0.9l0.1,0c0-0.6,0.4-1.3,1.3-1.5c1.1-0.3,2,0.4,2.3,1.8l0.9,3.5l-1.6,0.4l-0.9-3.4
			c-0.2-0.7-0.5-1-1.1-0.9c-0.5,0.1-0.9,0.5-0.8,1.1l0.9,3.6L260.2,411.9z"/>
		<path d="M264.2,402.4l1.6-0.5l0.9,3.2l0.1,0c0-0.6,0.4-1.3,1.2-1.5c1.1-0.3,2,0.3,2.4,1.7l1,3.5l-1.6,0.5l-1-3.3
			c-0.2-0.7-0.5-1-1.1-0.8c-0.5,0.1-0.9,0.6-0.8,1.1l1.1,3.6l-1.6,0.5L264.2,402.4z"/>
		<path d="M271.5,405.7c-0.6-1.8,0-3.2,1.6-3.7c1.6-0.5,2.9,0.3,3.5,2s0,3.2-1.6,3.7C273.4,408.3,272.1,407.5,271.5,405.7z
			 M275.2,405.1l-0.4-1.1c-0.2-0.7-0.7-1-1.3-0.8s-0.8,0.7-0.6,1.4l0.4,1.1c0.2,0.7,0.7,1,1.3,0.8S275.5,405.8,275.2,405.1z"/>
		<path d="M280.5,405.8c-1.1,0.4-1.8,0-2.2-1l-0.9-2.7l-0.8,0.3l-0.4-1.2l0.4-0.1c0.4-0.1,0.5-0.4,0.3-0.8l-0.3-0.9l1.4-0.5l0.5,1.5
			l1.1-0.4l0.4,1.2l-1.1,0.4l1.1,3.1l1-0.4l0.4,1.2L280.5,405.8z"/>
		<path d="M281.1,402.5c-0.7-1.7-0.2-3.2,1.4-3.8c1.8-0.7,3,0.3,3.6,1.8l0.2,0.5l-3.5,1.3l0,0.1c0.3,0.7,0.8,1,1.6,0.7
			c0.6-0.2,0.9-0.7,1.1-1.2l1.1,0.7c-0.3,0.7-0.9,1.4-1.9,1.8C283.1,404.9,281.7,404.2,281.1,402.5z M282.4,401.3L282.4,401.3
			l1.9-0.6l0-0.1c-0.3-0.7-0.7-1-1.3-0.8C282.4,400,282.2,400.6,282.4,401.3z"/>
		<path d="M289.7,402.2c-1,0.4-1.7,0.1-2.1-0.9l-2.5-6.1l1.5-0.6l2.6,6.4l0.7-0.3l0.5,1.2L289.7,402.2z"/>
		<path d="M292.7,399.8l0.1,0.2c0.4,0.8,0.3,1.9-0.1,2.6l-1,0.4c0.3-0.6,0.4-1.2,0.4-1.8c-0.5,0.1-0.8-0.1-1-0.5l-0.1-0.2
			c-0.2-0.5-0.1-0.9,0.5-1.2C292.1,399.2,292.5,399.4,292.7,399.8z"/>
		<path d="M298.5,398.3l-5.5-5.9l1.5-0.7l2.6,2.8l1.6,1.9l0,0l-0.5-2.4l-0.6-3.8l1.5-0.7l1,8L298.5,398.3z"/>
		<path d="M301.2,393.8c-0.8-1.7-0.5-3.1,1-3.9c1.5-0.8,2.9-0.2,3.8,1.4c0.8,1.7,0.5,3.2-1,3.9C303.5,396,302,395.5,301.2,393.8z
			 M304.8,392.6l-0.5-1c-0.3-0.6-0.9-0.8-1.4-0.6s-0.7,0.8-0.4,1.5l0.5,1c0.3,0.6,0.9,0.8,1.4,0.6S305.1,393.3,304.8,392.6z"/>
		<path d="M311.3,394.4c-1.8,1-2.6,0.9-3,0.1c-0.3-0.6-0.1-1.1,0.4-1.5l-0.1-0.1c-0.5,0.2-1,0-1.2-0.5c-0.3-0.5,0-1.1,0.5-1.4l0,0
			c-0.8,0.1-1.3-0.3-1.7-0.9c-0.6-1-0.2-2.1,1.2-2.9c0.3-0.2,0.6-0.3,0.9-0.4l-0.1-0.2c-0.3-0.5-0.1-0.9,0.3-1.2l0.8-0.4l0.6,1.1
			l-1.1,0.6l0,0.1c0.7,0,1.3,0.3,1.7,1c0.6,1,0.2,2.1-1.2,2.9c-0.3,0.2-0.7,0.3-1,0.4c-0.1,0.2-0.1,0.4,0,0.5
			c0.1,0.2,0.4,0.3,0.8,0.1l1.5-0.8c1.2-0.7,2.1-0.4,2.6,0.5C313.7,392.2,313.4,393.2,311.3,394.4z M309.2,388.4l-0.1-0.1
			c-0.2-0.4-0.7-0.5-1.2-0.2c-0.6,0.3-0.7,0.7-0.5,1.2l0.1,0.1c0.2,0.4,0.7,0.5,1.2,0.2C309.3,389.3,309.4,388.9,309.2,388.4z
			 M310.9,392.1l-1.7,1c-0.1,0.2,0,0.4,0.1,0.6c0.2,0.4,0.6,0.4,1.4,0l0.6-0.3c0.8-0.4,1-0.8,0.8-1.1
			C311.8,391.8,311.5,391.8,310.9,392.1z"/>
		<path d="M311.7,388.2c-0.9-1.6-0.7-3.1,0.8-4c1.6-1,3-0.2,3.8,1.2l0.2,0.4l-3.2,1.9l0,0.1c0.4,0.7,1,0.9,1.7,0.4
			c0.6-0.3,0.7-0.8,0.9-1.3l1.2,0.5c-0.1,0.8-0.7,1.5-1.6,2.1C314.1,390.3,312.6,389.8,311.7,388.2z M312.8,386.8L312.8,386.8l1.8-1
			l0-0.1c-0.4-0.6-0.9-0.9-1.4-0.5C312.6,385.6,312.5,386.2,312.8,386.8z"/>
		<path d="M320.1,386.5c-0.9,0.6-1.7,0.4-2.2-0.5l-3.5-5.6l1.4-0.9l3.6,5.8l0.6-0.4l0.7,1.1L320.1,386.5z"/>
		<path d="M317.1,378.8l1.4-0.9l1.8,2.8l0.1,0c-0.2-0.6,0-1.3,0.7-1.8c1-0.6,2-0.3,2.8,0.9l2,3l-1.4,0.9l-1.9-2.9
			c-0.4-0.6-0.8-0.8-1.3-0.5c-0.4,0.3-0.7,0.8-0.4,1.3l2,3.1l-1.4,0.9L317.1,378.8z"/>
		<path d="M330.5,379.6c-0.5,0.3-1,0.2-1.5-0.2l-0.1,0c0.3,0.7,0,1.4-0.7,1.9c-0.9,0.7-1.9,0.5-2.4-0.4c-0.7-1-0.3-2,1-2.9l0.7-0.5
			l-0.2-0.3c-0.3-0.5-0.7-0.6-1.3-0.2c-0.5,0.4-0.6,0.8-0.6,1.3l-1.3-0.1c0-0.8,0.3-1.5,1.3-2.2c1.3-0.9,2.4-0.8,3.2,0.3l1.4,2.1
			l0.4-0.3l0.7,1L330.5,379.6z M328.5,378.9l-0.4-0.6l-0.6,0.5c-0.5,0.4-0.7,0.7-0.4,1.1l0.1,0.1c0.2,0.3,0.6,0.3,1,0.1
			C328.5,379.7,328.8,379.3,328.5,378.9z"/>
		<path d="M334.2,375.7L334.2,375.7c0.1,0.6,0.1,1.3-0.7,1.9c-0.9,0.7-1.9,0.4-2.8-0.7l-2.2-2.9l1.3-1l2.1,2.8
			c0.4,0.6,0.8,0.7,1.3,0.4c0.4-0.3,0.7-0.8,0.3-1.3l-2.2-3l1.3-1l3.4,4.6l-1.3,1L334.2,375.7z"/>
		<path d="M336.3,374.1l0.2-1.4c0.6,0.1,1.2,0,1.7-0.4c0.5-0.4,0.5-0.7,0.3-1c-0.2-0.2-0.4-0.2-0.8,0l-0.5,0.3
			c-1.1,0.7-2,0.6-2.6-0.2c-0.7-0.9-0.5-2,0.6-2.9c1-0.8,1.6-0.8,2.4-0.8l-0.1,1.3c-0.5-0.1-1,0.1-1.4,0.4c-0.4,0.3-0.5,0.6-0.3,0.9
			c0.2,0.2,0.4,0.3,0.8,0l0.6-0.3c1.1-0.6,2-0.6,2.6,0.2c0.7,0.9,0.4,2.1-0.8,3C338,374.1,337.2,374.3,336.3,374.1z"/>
		<path d="M342.4,369.2l0.1,0.2c0.6,0.7,0.8,1.7,0.6,2.6l-0.8,0.7c0.1-0.7,0.1-1.3-0.1-1.9c-0.4,0.3-0.8,0.1-1.1-0.2l-0.1-0.2
			c-0.3-0.4-0.3-0.9,0.2-1.3S342.1,368.8,342.4,369.2z"/>
		<path d="M346.1,367.3l-5.1-5.8l3.8-3.4l1,1.1l-2.6,2.3l1,1.2l2.2-1.9l1,1.1l-2.2,1.9l2.1,2.4L346.1,367.3z"/>
		<path d="M352,362c-0.8,0.8-1.6,0.7-2.3-0.1l-4.5-4.8l1.2-1.1l4.7,5l0.5-0.5l0.9,0.9L352,362z"/>
		<path d="M351,359c-1.3-1.3-1.4-2.8-0.2-4c1.4-1.3,2.9-0.9,4,0.2l0.3,0.3l-2.7,2.6l0.1,0.1c0.5,0.5,1.2,0.6,1.8,0
			c0.5-0.5,0.5-1,0.5-1.5l1.3,0.2c0,0.8-0.3,1.6-1.1,2.4C353.8,360.5,352.3,360.4,351,359z M351.7,357.4L351.7,357.4l1.5-1.3
			l-0.1-0.1c-0.5-0.5-1-0.6-1.5-0.2C351.2,356.3,351.2,356.9,351.7,357.4z"/>
		<path d="M359.4,353.3L359.4,353.3c0.3,0.6,0.2,1.4-0.3,1.9c-1,1.1-2.3,0.9-3.7-0.5c-1.4-1.4-1.6-2.6-0.6-3.7
			c0.5-0.5,1.3-0.7,1.9-0.3l0,0l-2.4-2.3l1.1-1.2l5.8,5.7l-1.1,1.2L359.4,353.3z M358.6,352.6l-1.2-1.2c-0.4-0.4-0.9-0.3-1.4,0.2
			c-0.4,0.4-0.4,1.1,0.1,1.6l0.7,0.7c0.5,0.5,1.2,0.5,1.6,0.1C358.9,353.5,359,353,358.6,352.6z"/>
		<path d="M359.8,350.1c-1.4-1.2-1.6-2.7-0.4-4c1.3-1.4,2.8-1.1,4,0l0.4,0.3l-2.5,2.7l0.1,0.1c0.6,0.5,1.2,0.5,1.8-0.1
			c0.5-0.5,0.5-1,0.4-1.5l1.3,0.1c0.1,0.8-0.2,1.7-0.9,2.4C362.7,351.4,361.2,351.3,359.8,350.1z M360.5,348.4L360.5,348.4l1.4-1.4
			l-0.1-0.1c-0.5-0.5-1.1-0.6-1.5-0.1S360,348,360.5,348.4z"/>
		<path d="M366.3,347.2l-4.4-3.8l1.1-1.2l0.9,0.8l0,0c-0.4-0.5-0.6-1.3,0-1.9l0.2-0.2l1.1,1l-0.3,0.3c-0.6,0.7-0.8,1.2-0.3,1.6
			l2.6,2.2L366.3,347.2z"/>
		<path d="M369.2,343.9l-4.5-3.6l1-1.3l0.8,0.6l0-0.1c-0.3-0.5-0.4-1.2,0.1-1.9c0.5-0.6,1.2-0.8,1.9-0.5l0,0
			c-0.4-0.6-0.4-1.4,0.2-2.1c0.7-0.9,1.7-0.8,2.9,0.1l2.8,2.3l-1,1.3l-2.7-2.2c-0.6-0.5-1-0.5-1.4-0.1c-0.3,0.4-0.4,0.9,0.1,1.3
			l2.9,2.4l-1,1.3l-2.7-2.2c-0.6-0.5-1-0.5-1.4-0.1c-0.3,0.4-0.4,0.9,0.1,1.3l2.9,2.4L369.2,343.9z"/>
		<path d="M377.9,332.9c-0.3,0.5-0.9,0.6-1.5,0.3l0,0.1c0.5,0.6,0.4,1.3-0.1,2c-0.7,0.9-1.6,1-2.4,0.4c-1-0.7-0.9-1.8,0-3.1l0.5-0.7
			l-0.3-0.2c-0.5-0.3-0.9-0.3-1.3,0.2c-0.4,0.5-0.3,1-0.2,1.4l-1.3,0.3c-0.3-0.8-0.2-1.6,0.5-2.5c1-1.3,2.1-1.5,3.2-0.7l2,1.5
			l0.3-0.4l1,0.8L377.9,332.9z M375.7,332.8l-0.5-0.4l-0.5,0.6c-0.4,0.5-0.4,0.9-0.1,1.2l0.1,0.1c0.3,0.2,0.7,0.1,0.9-0.2
			C376,333.6,376.1,333.1,375.7,332.8z"/>
		<path d="M380.2,327.9L380.2,327.9c0.3,0.5,0.5,1.2-0.1,2c-0.7,1-1.7,1-2.9,0.2l-3-2.1l0.9-1.3l2.9,2c0.6,0.4,1,0.4,1.4,0
			c0.3-0.4,0.4-1-0.1-1.3l-3.1-2.1l0.9-1.3l4.7,3.3l-0.9,1.3L380.2,327.9z"/>
		<path d="M381.7,325.8l-0.3-1.3c0.6-0.1,1.1-0.3,1.5-0.9c0.4-0.5,0.3-0.8,0-1c-0.2-0.2-0.5-0.1-0.7,0.2l-0.4,0.5
			c-0.9,1-1.7,1.2-2.6,0.6c-0.9-0.6-1.1-1.8-0.3-2.9c0.7-1,1.2-1.3,2-1.5l0.3,1.3c-0.5,0.1-1,0.4-1.2,0.8c-0.3,0.5-0.3,0.8,0,0.9
			c0.3,0.2,0.5,0.1,0.8-0.2l0.4-0.5c0.8-1,1.7-1.2,2.5-0.6c0.9,0.6,1.1,1.9,0.2,3.1C383.3,325.3,382.6,325.7,381.7,325.8z"/>
		<path d="M378.8,317.1l0.9-1.4l4.1,2.5l0-0.1l-0.5-1.2l-0.6-1.7l0.9-1.5l0.9,2.8l4.2,0l-1,1.6l-2.8-0.2l0.3,1l1.4,0.9l-0.9,1.4
			L378.8,317.1z"/>
		<path d="M391.1,312.3c-0.3,0.5-0.8,0.7-1.4,0.4l0,0.1c0.6,0.5,0.6,1.3,0.1,2c-0.6,1-1.5,1.2-2.4,0.7c-1.1-0.6-1.1-1.7-0.3-3
			l0.5-0.8l-0.3-0.2c-0.5-0.3-0.9-0.2-1.3,0.4c-0.3,0.6-0.2,1,0,1.4l-1.2,0.4c-0.4-0.7-0.4-1.5,0.2-2.6c0.8-1.4,1.9-1.8,3.1-1.1
			l2.2,1.3l0.3-0.5l1.1,0.6L391.1,312.3z M389,312.5l-0.6-0.3l-0.4,0.7c-0.3,0.5-0.3,0.9,0.1,1.2l0.1,0.1c0.4,0.2,0.7,0.1,0.9-0.3
			C389.4,313.3,389.5,312.8,389,312.5z"/>
		<path d="M391.1,310.6l-0.4-1.3c0.6-0.1,1.1-0.4,1.4-1c0.3-0.6,0.2-0.9-0.1-1c-0.3-0.1-0.5,0-0.7,0.3l-0.4,0.5
			c-0.8,1.1-1.6,1.4-2.5,0.9c-1-0.5-1.2-1.7-0.6-2.9c0.6-1.1,1.1-1.4,1.9-1.6l0.4,1.3c-0.5,0.1-0.9,0.5-1.2,0.9
			c-0.3,0.5-0.2,0.8,0.1,0.9c0.3,0.1,0.5,0.1,0.8-0.3l0.4-0.5c0.7-1,1.6-1.3,2.4-0.8c1,0.5,1.2,1.8,0.5,3.1
			C392.6,309.9,391.9,310.4,391.1,310.6z"/>
		<path d="M395.6,304c-0.5,1-1.3,1.3-2.3,0.8l-2.5-1.3l-0.4,0.7l-1.1-0.6l0.2-0.4c0.2-0.4,0.1-0.6-0.3-0.8l-0.8-0.4l0.7-1.3l1.4,0.7
			l0.5-1l1.1,0.6l-0.5,1l2.9,1.5l0.5-0.9l1.1,0.6L395.6,304z"/>
		<path d="M393.8,301.2c-1.6-0.8-2.3-2.2-1.5-3.7c0.8-1.7,2.4-1.8,3.8-1.1l0.4,0.2l-1.6,3.3l0.1,0c0.7,0.3,1.3,0.2,1.7-0.6
			c0.3-0.6,0.2-1.1,0-1.6l1.3-0.3c0.3,0.7,0.3,1.6-0.2,2.6C396.9,301.6,395.4,302,393.8,301.2z M393.9,299.4L393.9,299.4l1-1.8
			l-0.1,0c-0.6-0.3-1.2-0.2-1.5,0.4C393,298.5,393.3,299.1,393.9,299.4z"/>
		<path d="M399.2,296.6l-5.3-2.3l0.7-1.5l0.9,0.4l0-0.1c-0.5-0.4-0.7-1.1-0.4-1.9c0.5-1.1,1.5-1.3,2.8-0.7l3.3,1.5l-0.7,1.5
			l-3.2-1.4c-0.7-0.3-1.1-0.3-1.3,0.3c-0.2,0.5-0.2,1.1,0.4,1.3l3.4,1.5L399.2,296.6z"/>
	</g>
	<g>
		<path d="M378.3,101.9l6.5-4.1l2.7,4.3l-1.3,0.8l-1.8-2.9l-1.3,0.8l1.5,2.5l-1.2,0.8l-1.5-2.5l-2.7,1.7L378.3,101.9z"/>
		<path d="M383.8,105.1c1.6-0.9,3.1-0.7,4,0.8c1,1.7,0.2,3-1.2,3.8l-0.4,0.2l-1.9-3.2l-0.1,0c-0.7,0.4-0.9,1-0.4,1.7
			c0.3,0.6,0.8,0.7,1.3,0.9l-0.5,1.2c-0.8-0.1-1.5-0.7-2.1-1.6C381.7,107.5,382.2,106.1,383.8,105.1z M385.2,106.3L385.2,106.3
			l0.9,1.8l0.1,0c0.6-0.4,0.9-0.9,0.5-1.4C386.4,106,385.8,105.9,385.2,106.3z"/>
		<path d="M385.3,113.6c-0.5-1-0.3-1.7,0.6-2.2l5.7-3.2l0.8,1.4l-6,3.3l0.4,0.6l-1.1,0.6L385.3,113.6z"/>
		<path d="M388.6,117.8L388.6,117.8c-0.7,0.1-1.4-0.3-1.7-0.9c-0.7-1.3-0.1-2.5,1.7-3.4c1.7-0.9,3-0.7,3.7,0.6
			c0.3,0.7,0.2,1.4-0.3,1.9l0,0l3-1.5l0.8,1.4l-7.2,3.8l-0.8-1.4L388.6,117.8z M389.6,117.3l1.5-0.8c0.5-0.2,0.5-0.8,0.3-1.3
			c-0.3-0.5-0.9-0.7-1.6-0.4l-0.9,0.5c-0.6,0.3-0.9,1-0.6,1.5C388.6,117.3,389.1,117.5,389.6,117.3z"/>
		<path d="M388.1,124c-0.9-1.8-0.7-2.7,0-3.1c0.6-0.3,1.1-0.1,1.5,0.5l0.1-0.1c-0.2-0.5,0.1-1,0.5-1.2c0.5-0.3,1.1,0.1,1.4,0.5l0,0
			c0-0.8,0.4-1.3,1-1.6c1-0.5,2.1-0.1,2.8,1.4c0.2,0.3,0.3,0.6,0.3,0.9l0.2-0.1c0.5-0.3,0.9-0.1,1.2,0.4l0.4,0.8l-1.1,0.5l-0.6-1.1
			l-0.1,0c0,0.7-0.4,1.3-1.1,1.6c-1,0.5-2.1,0.1-2.8-1.4c-0.2-0.3-0.3-0.7-0.3-1c-0.2-0.1-0.3-0.1-0.5,0c-0.2,0.1-0.3,0.4-0.1,0.8
			l0.7,1.5c0.6,1.3,0.3,2.1-0.6,2.5C390,126.5,389.1,126.1,388.1,124z M390.4,123.7l-0.9-1.8c-0.2-0.1-0.4,0-0.6,0
			c-0.4,0.2-0.4,0.6,0,1.4l0.3,0.6c0.4,0.8,0.7,1,1.1,0.8C390.6,124.6,390.6,124.3,390.4,123.7z M394.1,122.2l0.1-0.1
			c0.5-0.2,0.6-0.6,0.3-1.2c-0.3-0.6-0.7-0.7-1.1-0.5l-0.1,0.1c-0.5,0.2-0.6,0.6-0.3,1.2C393.3,122.2,393.6,122.4,394.1,122.2z"/>
		<path d="M394.2,124.8c1.7-0.7,3.1-0.3,3.9,1.2c0.8,1.7-0.2,3-1.6,3.7l-0.4,0.2l-1.5-3.4l-0.1,0c-0.7,0.3-1,0.9-0.6,1.7
			c0.3,0.6,0.7,0.8,1.2,1l-0.6,1.2c-0.8-0.2-1.4-0.9-1.9-1.8C391.9,127,392.6,125.6,394.2,124.8z M395.5,126.1L395.5,126.1l0.7,1.9
			l0.1,0c0.6-0.3,0.9-0.8,0.7-1.4S396.2,125.8,395.5,126.1z"/>
		<path d="M401.8,128.9l0.6,1.5l-3.1,1.3l0,0.1c0.6,0,1.3,0.2,1.6,1.1c0.4,1.1-0.1,2-1.4,2.5l-3.3,1.4l-0.6-1.5l3.2-1.3
			c0.7-0.3,0.9-0.6,0.7-1.2c-0.2-0.5-0.7-0.9-1.2-0.6l-3.5,1.4l-0.6-1.5L401.8,128.9z"/>
		<path d="M399.3,136.6c1.7-0.6,3.2-0.1,3.8,1.5s-0.1,2.9-1.9,3.6s-3.2,0.1-3.8-1.5C396.8,138.6,397.5,137.3,399.3,136.6z
			 M400,140.3l1.1-0.4c0.7-0.3,0.9-0.7,0.7-1.3c-0.2-0.6-0.7-0.8-1.4-0.6l-1.1,0.4c-0.7,0.3-0.9,0.7-0.7,1.3
			C398.8,140.4,399.3,140.6,400,140.3z M403.6,135.7l0.3-0.1c0.4-0.1,0.7,0,1,0.6c0.2,0.6,0,0.9-0.3,1.1l-0.3,0.1
			c-0.4,0.1-0.7,0-1-0.6C403,136.1,403.2,135.8,403.6,135.7z M404.4,137.9l0.3-0.1c0.4-0.1,0.7,0,1,0.6c0.2,0.6,0,0.9-0.3,1.1
			l-0.3,0.1c-0.4,0.1-0.7,0-1-0.6C403.9,138.4,404.1,138.1,404.4,137.9z"/>
		<path d="M399.3,145.3c-0.4-1,0-1.7,1-2l6.2-2.1l0.5,1.5l-6.5,2.2l0.2,0.7l-1.2,0.4L399.3,145.3z"/>
		<path d="M399.8,146.6l1.2-0.4l3.9,1.8l-0.8-2.6l1.2-0.4l1.4,4.4l-1.2,0.4l-4-1.8l0.9,2.8l-1.2,0.4L399.8,146.6z"/>
	</g>
	<g>
		<path d="M168.3,10.4c-0.5-2.6,0.6-4.2,2.6-4.5c2-0.4,3.6,0.7,4.1,3.3c0.5,2.6-0.6,4.2-2.6,4.5C170.3,14.1,168.7,13,168.3,10.4z
			 M173.3,10L173,8.9c-0.2-1.2-1-1.8-1.9-1.6c-1,0.2-1.4,1-1.2,2.2l0.2,1.1c0.2,1.2,1,1.8,1.9,1.6C173,12,173.5,11.2,173.3,10z"/>
		<path d="M175.6,4.7l1.6-0.2l0.5,3.3l0.1,0c0.1-0.7,0.6-1.2,1.4-1.3c1.4-0.2,2.4,0.7,2.7,2.6c0.3,1.9-0.3,3.1-1.7,3.3
			c-0.7,0.1-1.4-0.3-1.7-0.9l-0.1,0l0.1,1l-1.6,0.2L175.6,4.7z M180.2,9.8l-0.2-1c-0.1-0.7-0.6-1.1-1.2-1s-1,0.5-0.9,1l0.3,1.7
			c0.1,0.5,0.6,0.8,1.2,0.7C180,11,180.3,10.5,180.2,9.8z"/>
		<path d="M182.8,10.9l0.8-1.1c0.5,0.4,1,0.6,1.6,0.5c0.6-0.1,0.8-0.3,0.8-0.7c0-0.3-0.2-0.4-0.6-0.4l-0.6,0c-1.3,0-2-0.5-2.2-1.5
			c-0.1-1.1,0.6-2,2-2.1c1.2-0.1,1.8,0.1,2.4,0.6l-0.8,1.1c-0.4-0.3-0.9-0.5-1.4-0.4c-0.5,0.1-0.7,0.3-0.7,0.6
			c0,0.3,0.2,0.5,0.7,0.5l0.7,0c1.3,0,2,0.5,2.1,1.5c0.1,1.1-0.7,2-2.2,2.2C184.3,11.8,183.5,11.5,182.8,10.9z"/>
		<path d="M190.8,10.9c-1.1,0.1-1.8-0.4-1.9-1.5l-0.3-2.8l-0.8,0.1l-0.1-1.3l0.4,0c0.4,0,0.5-0.3,0.5-0.7l-0.1-0.9l1.5-0.1l0.2,1.6
			l1.1-0.1l0.1,1.3l-1.1,0.1l0.3,3.2l1.1-0.1l0.1,1.3L190.8,10.9z"/>
		<path d="M192.4,2.6l1.6-0.1l0.2,3.3l0.1,0c0.1-0.6,0.7-1.2,1.5-1.2c1.5-0.1,2.3,0.9,2.4,2.8c0.1,2-0.5,3.1-2,3.2
			c-0.7,0.1-1.4-0.4-1.6-1l-0.1,0l0.1,1l-1.6,0.1L192.4,2.6z M196.5,8.1l-0.1-1c-0.1-0.7-0.5-1.2-1.1-1.1c-0.6,0-1,0.4-1,0.9
			l0.1,1.7c0,0.5,0.5,0.8,1.1,0.8S196.6,8.8,196.5,8.1z"/>
		<path d="M203.8,10.1c-0.6,0-1-0.4-1.1-1l-0.1,0c-0.1,0.8-0.8,1.2-1.6,1.2c-1.2,0-1.8-0.6-1.9-1.6c0-1.2,0.9-1.8,2.4-1.9l0.9,0
			l0-0.4c0-0.6-0.3-0.9-1-0.9c-0.6,0-1,0.4-1.2,0.7l-1-0.8c0.4-0.7,1.1-1.1,2.3-1.2c1.6-0.1,2.5,0.6,2.5,2l0.1,2.5l0.5,0l0.1,1.3
			L203.8,10.1z M199.4,3l0-0.3c0-0.4,0.2-0.7,0.9-0.7c0.7,0,0.9,0.3,0.9,0.7l0,0.3c0,0.4-0.2,0.7-0.9,0.7
			C199.6,3.6,199.4,3.3,199.4,3z M202.5,8.4l0-0.7l-0.8,0c-0.6,0-0.9,0.3-0.9,0.7l0,0.2c0,0.4,0.3,0.6,0.8,0.6
			C202.1,9.2,202.5,8.9,202.5,8.4z M201.8,2.9l0-0.3c0-0.4,0.2-0.7,0.9-0.7s0.9,0.3,0.9,0.7l0,0.3c0,0.4-0.2,0.7-0.9,0.7
			C202,3.6,201.8,3.3,201.8,2.9z"/>
		<path d="M209.1,9L209.1,9c-0.2,0.6-0.7,1.1-1.7,1.1c-1.2,0-1.8-0.8-1.8-2.3l0-3.6l1.6,0l0,3.5c0,0.7,0.2,1.1,0.8,1.1
			c0.5,0,1-0.3,1-0.8l0-3.8l1.6,0l0,5.8l-1.6,0L209.1,9z"/>
		<path d="M212.2,10l0.2-5.8l1.6,0.1l0,1l0.1,0c0.2-0.6,0.7-1.1,1.6-1.1c0.8,0,1.4,0.5,1.6,1.2l0,0c0.2-0.6,0.9-1.1,1.8-1.1
			c1.1,0,1.7,0.9,1.7,2.3l-0.1,3.6l-1.6-0.1l0.1-3.5c0-0.7-0.2-1.1-0.8-1.1c-0.5,0-1,0.2-1,0.8l-0.1,3.7l-1.6-0.1l0.1-3.5
			c0-0.7-0.2-1.1-0.8-1.1c-0.5,0-1,0.2-1,0.8l-0.1,3.7L212.2,10z"/>
		<path d="M221.8,7.4c0.1-1.8,1.2-2.9,2.9-2.8c1.9,0.1,2.6,1.6,2.5,3.1l0,0.5L223.5,8l0,0.1c-0.1,0.8,0.3,1.3,1.2,1.3
			c0.7,0,1.1-0.2,1.5-0.6l0.7,1.1c-0.6,0.6-1.4,0.9-2.5,0.8C222.6,10.5,221.7,9.3,221.8,7.4z M223.5,6.9L223.5,6.9l2,0.2l0-0.1
			c0-0.7-0.2-1.2-0.9-1.2S223.6,6.2,223.5,6.9z"/>
		<path d="M235.3,10.9c-0.5,0.3-1.2,0.6-2.3,0.5c-1.7-0.2-2.5-1.2-2.3-2.4c0.1-1,0.8-1.5,1.8-1.9c-0.4-0.5-0.7-1.2-0.6-1.9
			c0.1-1,1.1-1.7,2.5-1.6c1.2,0.1,2.1,0.9,2,2c-0.1,1-0.9,1.5-1.8,1.9l1,1.4c0.2-0.4,0.4-1,0.5-1.5l1.8,0.2L237.7,9L237,8.9
			c-0.2,0.4-0.4,0.8-0.6,1.2l1.3,1.8l-2-0.2L235.3,10.9z M234.5,9.9L233.1,8c-0.5,0.2-0.7,0.5-0.8,0.9l0,0.1c-0.1,0.6,0.3,1,1.1,1.1
			C233.8,10.2,234.2,10.1,234.5,9.9z M233.3,5.4L233.3,5.4c0,0.3,0.1,0.6,0.5,1.1c0.5-0.2,0.8-0.5,0.9-0.9l0,0
			c0-0.4-0.2-0.7-0.6-0.7C233.7,4.8,233.4,5,233.3,5.4z"/>
		<path d="M240.8,11.2l1.3-0.9c0.4,0.7,1,1.1,1.8,1.2c0.8,0.1,1.3-0.2,1.3-0.7c0.1-0.4-0.1-0.7-0.7-1l-0.7-0.2
			c-1.6-0.5-2.2-1.4-1.9-2.6c0.2-1.4,1.5-2.1,3.2-1.8c1.1,0.2,1.9,0.7,2.4,1.5l-1.3,0.9c-0.3-0.5-0.7-0.9-1.5-1
			c-0.7-0.1-1.1,0.1-1.2,0.6c-0.1,0.5,0.2,0.8,0.8,1l0.7,0.2c1.5,0.5,2.1,1.3,1.9,2.6c-0.2,1.5-1.5,2.3-3.4,2
			C242.2,12.7,241.4,12,240.8,11.2z"/>
		<path d="M249.6,13.9c-1.1-0.2-1.6-0.9-1.4-2l0.5-2.8L248,9l0.2-1.2l0.4,0.1c0.4,0.1,0.6-0.1,0.7-0.5l0.2-0.9l1.4,0.3l-0.3,1.5
			l1.1,0.2l-0.2,1.2l-1.1-0.2l-0.6,3.2l1,0.2l-0.2,1.2L249.6,13.9z"/>
		<path d="M251.8,14.4l1.2-5.6l1.6,0.4l-0.3,1.2l0.1,0c0.3-0.6,0.8-1.1,1.7-0.9l0.3,0.1l-0.3,1.5l-0.4-0.1c-0.9-0.2-1.4-0.1-1.6,0.6
			l-0.7,3.3L251.8,14.4z"/>
		<path d="M260,16.3c-0.6-0.1-0.9-0.6-0.8-1.2l-0.1,0c-0.4,0.7-1.1,0.9-1.9,0.7c-1.1-0.3-1.6-1.1-1.3-2.1c0.3-1.2,1.4-1.5,2.8-1.2
			l0.9,0.2l0.1-0.4c0.1-0.5,0-1-0.7-1.1c-0.6-0.2-1,0.1-1.4,0.4l-0.7-1.1c0.6-0.6,1.4-0.8,2.5-0.5c1.6,0.4,2.2,1.3,1.9,2.6l-0.6,2.5
			l0.5,0.1l-0.3,1.2L260,16.3z M259.2,14.3l0.2-0.7l-0.8-0.2c-0.6-0.2-1,0-1.1,0.4l0,0.2c-0.1,0.4,0.1,0.7,0.6,0.8
			C258.6,14.9,259.1,14.8,259.2,14.3z M257.7,8.2l0.1-0.3c0.1-0.4,0.4-0.6,1-0.5s0.8,0.5,0.7,0.9l-0.1,0.3c-0.1,0.4-0.4,0.6-1,0.5
			C257.8,8.9,257.6,8.6,257.7,8.2z M260.1,8.8l0.1-0.3c0.1-0.4,0.4-0.6,1-0.5c0.6,0.2,0.8,0.5,0.7,0.9l-0.1,0.3
			c-0.1,0.4-0.4,0.6-1,0.5C260.1,9.5,260,9.2,260.1,8.8z"/>
		<path d="M265.5,16.8L265.5,16.8c-0.4,0.5-1,0.9-1.9,0.6c-1.1-0.3-1.5-1.3-1.1-2.7l1-3.5l1.6,0.4L264,15c-0.2,0.7-0.1,1.1,0.5,1.3
			c0.5,0.1,1.1,0,1.2-0.5l1-3.6l1.6,0.4l-1.6,5.6l-1.6-0.4L265.5,16.8z"/>
		<path d="M268.7,15.7c0.6-1.8,1.8-2.6,3.5-2.1c1.1,0.3,1.7,1.1,1.8,2.1l-1.4,0.2c0-0.4-0.2-0.9-0.7-1.1c-0.6-0.2-1.1,0.2-1.3,0.8
			l-0.3,1c-0.2,0.7,0,1.2,0.6,1.4c0.6,0.2,1-0.1,1.3-0.5l1,0.9c-0.7,0.9-1.6,1.2-2.7,0.8C268.7,18.9,268.1,17.5,268.7,15.7z"/>
		<path d="M276.2,12.6l1.5,0.5l-1.1,3.2l0.1,0c0.4-0.5,1-0.8,1.9-0.5c1.1,0.4,1.4,1.4,1,2.8l-1.2,3.4l-1.5-0.5l1.1-3.3
			c0.2-0.7,0.2-1.1-0.4-1.3c-0.5-0.2-1.1-0.1-1.3,0.5l-1.2,3.5l-1.5-0.5L276.2,12.6z"/>
		<path d="M280.4,19.6c0.7-1.7,2-2.5,3.6-1.8c1.8,0.7,2,2.3,1.4,3.7l-0.2,0.5l-3.5-1.3l0,0.1c-0.3,0.7-0.1,1.3,0.7,1.6
			c0.6,0.2,1.1,0.1,1.6-0.1l0.4,1.2c-0.7,0.4-1.6,0.4-2.6,0C280.2,22.8,279.7,21.3,280.4,19.6z M282.2,19.6L282.2,19.6l1.9,0.8
			l0-0.1c0.3-0.7,0.1-1.2-0.5-1.4C283,18.7,282.4,19,282.2,19.6z"/>
		<path d="M285.4,24.7l2.2-5.3l1.5,0.6l-0.5,1.2l0.1,0c0.4-0.5,1-0.9,1.8-0.6l0.3,0.1l-0.6,1.4l-0.4-0.2c-0.9-0.4-1.4-0.3-1.6,0.3
			l-1.3,3.1L285.4,24.7z"/>
	</g>
	<g>
		<path d="M10.9,191.1L3,192l0.2-1.6L7,190l2.2-0.2l0,0l-2.1-0.7l-3.6-1.2l0.2-1.8l3.8-0.4l2.2-0.2l0,0l-2.1-0.6L4,183.5l0.2-1.6
			l7.4,2.6l-0.2,1.9L7.1,187l-1.7,0.2l0,0l1.6,0.6l4,1.4L10.9,191.1z"/>
		<path d="M4.8,180.9l-0.2,0c-0.5-0.1-0.8-0.4-0.7-1.1c0.1-0.7,0.5-0.9,0.9-0.8l0.2,0c0.5,0.1,0.8,0.4,0.7,1.1S5.3,181,4.8,180.9z
			 M6.3,181l0.2-1.6l5.7,0.8l-0.2,1.6L6.3,181z"/>
		<path d="M9.5,178.6c-1.8-0.3-2.8-1.5-2.5-3.2c0.3-1.9,1.8-2.4,3.4-2.2l0.5,0.1l-0.6,3.7l0.1,0c0.7,0.1,1.3-0.2,1.4-1.1
			c0.1-0.7-0.1-1.1-0.4-1.5l1.1-0.6c0.5,0.6,0.7,1.5,0.5,2.5C12.6,178.1,11.3,178.9,9.5,178.6z M9.2,176.9L9.2,176.9l0.4-2l-0.1,0
			c-0.7-0.1-1.2,0.1-1.3,0.8S8.5,176.7,9.2,176.9z"/>
		<path d="M12.5,173l-0.8-1.1c0.5-0.3,0.9-0.7,1-1.4c0.1-0.6,0-0.9-0.4-0.9c-0.3-0.1-0.5,0.1-0.6,0.5l-0.2,0.6
			c-0.4,1.3-1.1,1.8-2.1,1.6C8.4,172,7.8,171,8,169.6c0.2-1.2,0.7-1.7,1.3-2.1l0.8,1.1c-0.4,0.3-0.7,0.7-0.8,1.2
			c-0.1,0.5,0,0.8,0.3,0.8c0.3,0.1,0.5,0,0.6-0.5l0.2-0.6c0.4-1.2,1.1-1.7,2.1-1.5c1.1,0.2,1.7,1.3,1.4,2.8
			C13.7,171.9,13.2,172.5,12.5,173z"/>
		<path d="M11.6,167c-1.8-0.4-2.7-1.6-2.3-3.3c0.4-1.9,2-2.3,3.5-2l0.5,0.1l-0.8,3.6l0.1,0c0.7,0.2,1.3-0.1,1.5-1
			c0.2-0.7-0.1-1.1-0.4-1.5l1.2-0.6c0.5,0.6,0.6,1.5,0.4,2.6C14.8,166.7,13.4,167.4,11.6,167z M11.4,165.2L11.4,165.2l0.5-2l-0.1,0
			c-0.7-0.2-1.2,0-1.4,0.7C10.3,164.6,10.7,165.1,11.4,165.2z"/>
		<path d="M15.9,161.3l-5.6-1.5l0.4-1.6l0.9,0.2l0-0.1c-0.5-0.4-0.9-1-0.7-1.8c0.3-1.1,1.3-1.5,2.7-1.2l3.5,0.9l-0.4,1.6l-3.4-0.9
			c-0.7-0.2-1.1-0.1-1.3,0.5c-0.1,0.5,0,1.1,0.6,1.2l3.6,0.9L15.9,161.3z"/>
	</g>
</g>
</svg>
