<?xml version="1.0" encoding="utf-8"?>
<!-- Generator: Adobe Illustrator 23.0.3, SVG Export Plug-In . SVG Version: 6.00 Build 0)  -->
<svg version="1.1" id="Ebene_1" xmlns="http://www.w3.org/2000/svg" xmlns:xlink="http://www.w3.org/1999/xlink" x="0px" y="0px"
	 viewBox="0 0 200 200" style="enable-background:new 0 0 200 200;" xml:space="preserve">
<style type="text/css">
	.st0{fill:#0A8642;}
	.st1{fill:#222222;}
</style>
<g>
	<g>
		<g>
			<path class="st0" d="M100,120L71.3,61.5c-0.3,1.3-0.6,2.5-0.9,3.8l29.5,60.3l29.5-60.3c-0.2-1.3-0.5-2.6-0.9-3.8L100,120z"/>
		</g>
		<g>
			<path class="st0" d="M96.2,127.6L69.5,73.1c-0.1,1.3-0.1,2.6-0.1,3.8c0,0.5,0,1,0,1.5l22.5,46C93.3,125.6,94.8,126.6,96.2,127.6z
				"/>
		</g>
		<g>
			<path class="st0" d="M130.5,73.1l-26.8,54.6c1.5-1,2.9-2.1,4.3-3.2l22.6-46c0-0.5,0-1,0-1.5C130.7,75.6,130.6,74.3,130.5,73.1z"
				/>
		</g>
		<g>
			<path class="st0" d="M100,104.7L74.4,52.5c-0.4,1-0.8,2-1.2,3.1l26.8,54.7l26.8-54.7c-0.4-1-0.8-2.1-1.2-3.1L100,104.7z"/>
		</g>
		<g>
			<path class="st0" d="M100,112.4L72.8,56.8c-0.4,1.1-0.7,2.2-1.1,3.4l28.3,57.8l28.3-57.8c-0.3-1.1-0.7-2.3-1.1-3.4L100,112.4z"/>
		</g>
		<g>
			<path class="st0" d="M100,97.1L76.3,48.7c-0.5,0.9-0.9,1.8-1.4,2.8l25.1,51.2l25.1-51.2c-0.4-0.9-0.9-1.9-1.4-2.8L100,97.1z"/>
		</g>
		<g>
			<path class="st0" d="M90.2,123L69.5,80.8c0.2,2.5,0.5,5,0.9,7.4l14.4,29.5C86.5,119.5,88.3,121.3,90.2,123z"/>
		</g>
		<g>
			<path class="st0" d="M71.2,92c2.1,8.4,6,16.1,11.1,22.7L71.2,92z"/>
		</g>
		<g>
			<path class="st0" d="M109.8,123c1.9-1.7,3.7-3.4,5.3-5.3l14.5-29.6c0.4-2.4,0.8-4.9,0.9-7.4L109.8,123z"/>
		</g>
		<g>
			<path class="st0" d="M128.8,91.9l-11.2,22.8C122.8,108.1,126.7,100.3,128.8,91.9z"/>
		</g>
		<g>
			<path class="st0" d="M100,127.7L70.2,66.9c-0.2,1.5-0.4,2.9-0.6,4.4l28.1,57.3c0.7,0.5,1.5,0.9,2.3,1.4h0h0
				c0.8-0.4,1.5-0.9,2.2-1.4l28.1-57.4c-0.1-1.5-0.3-3-0.6-4.4L100,127.7z"/>
		</g>
		<g>
			<path class="st0" d="M100,51.1L90.1,31c-0.6,0.6-1.3,1.1-1.9,1.7l11.7,24l11.7-24c-0.6-0.6-1.2-1.2-1.9-1.7L100,51.1z"/>
		</g>
		<g>
			<path class="st0" d="M100,43.4l-7.2-14.7c-0.7,0.5-1.3,1.1-1.9,1.6L100,49l9.1-18.7c-0.6-0.5-1.3-1.1-1.9-1.6L100,43.4z"/>
		</g>
		<g>
			<path class="st0" d="M100,35.8l-4.4-9.1c-0.7,0.5-1.4,1-2,1.5l6.5,13.2l6.5-13.2c-0.7-0.5-1.3-1-2-1.5L100,35.8z"/>
		</g>
		<g>
			<path class="st0" d="M99.2,24.4L100,26l0.8-1.7c-0.3-0.2-0.5-0.3-0.8-0.5C99.7,24,99.5,24.2,99.2,24.4z"/>
		</g>
		<g>
			<path class="st0" d="M100,89.4L78.3,45.1c-0.5,0.8-1,1.7-1.5,2.6L100,95l23.2-47.3c-0.5-0.9-1-1.7-1.5-2.5L100,89.4z"/>
		</g>
		<g>
			<path class="st0" d="M100,28.1l-1.6-3.3c-0.7,0.4-1.4,0.9-2.1,1.3l3.7,7.5l3.7-7.5c-0.7-0.5-1.4-0.9-2.1-1.3L100,28.1z"/>
		</g>
		<g>
			<path class="st0" d="M100,81.7L80.4,41.8c-0.5,0.8-1.1,1.6-1.6,2.4L100,87.3l21.1-43.2c-0.5-0.8-1-1.6-1.6-2.4L100,81.7z"/>
		</g>
		<g>
			<path class="st0" d="M100,74.1L82.7,38.8c-0.6,0.7-1.1,1.4-1.7,2.2l19,38.7l19-38.7c-0.5-0.7-1.1-1.5-1.7-2.2L100,74.1z"/>
		</g>
		<g>
			<path class="st0" d="M112.5,33.4L100,58.7L87.6,33.4c-0.6,0.6-1.2,1.2-1.8,1.9L100,64.3l14.3-29.1
				C113.7,34.6,113.1,34,112.5,33.4z"/>
		</g>
		<g>
			<path class="st0" d="M100,66.4L85.1,36c-0.6,0.7-1.2,1.3-1.7,2L100,72l16.7-34c-0.6-0.7-1.1-1.4-1.7-2L100,66.4z"/>
		</g>
	</g>
	<g>
		<path class="st1" d="M100,132.9c-1.1,0-2.1-0.5-2.7-1.5c-0.8-1.5-0.3-3.3,1.1-4.2c8.7-5,16-12.3,21.1-20.9c5.3-8.9,8-19.1,8-29.5
			c0-32.1-26.1-58.2-58.2-58.2S11.1,44.6,11.1,76.7c0,10.2,2.7,20.3,7.8,29.1c0.8,1.5,0.3,3.3-1.1,4.2c-1.5,0.8-3.3,0.3-4.2-1.1
			C8,99.1,5,88,5,76.7c0-35.5,28.9-64.4,64.4-64.4c35.5,0,64.4,28.9,64.4,64.4c0,11.5-3.1,22.8-8.9,32.6
			c-5.6,9.6-13.7,17.6-23.3,23.1C101.1,132.7,100.5,132.9,100,132.9z"/>
	</g>
	<g>
		<path class="st1" d="M100,132.9c-0.5,0-1-0.1-1.5-0.4c-9.6-5.6-17.7-13.5-23.3-23.1c-5.8-9.9-8.9-21.1-8.9-32.6
			c0-35.5,28.9-64.4,64.4-64.4c35.5,0,64.4,28.9,64.4,64.4c0,11.3-3,22.4-8.6,32.2c-0.8,1.5-2.7,2-4.2,1.1c-1.5-0.8-2-2.7-1.1-4.2
			c5.1-8.8,7.8-18.9,7.8-29.1c0-32.1-26.1-58.2-58.2-58.2S72.4,44.6,72.4,76.7c0,10.4,2.8,20.6,8,29.5c5.1,8.7,12.4,15.9,21.1,20.9
			c1.5,0.8,2,2.7,1.1,4.2C102.1,132.3,101.1,132.9,100,132.9z"/>
	</g>
	<g>
		<path class="st1" d="M100,196.9l-4.4-14.8c0-0.1-2.3-7.2-9.8-16.3c-7-8.5-20-20.4-42.5-29.5c-2.4-0.9-3.5-3.6-2.6-6
			c0.9-2.4,3.6-3.5,6-2.6c13.6,5.4,32.7,15.5,46.6,32.6c2.9,3.5,5.1,6.8,6.7,9.6c1.6-2.8,3.8-6.1,6.7-9.6
			c7.6-9.4,21.9-22.8,46.6-32.6c2.4-0.9,5,0.2,6,2.6c0.9,2.4-0.2,5-2.6,6c-22.6,9-35.6,21-42.5,29.5c-7.5,9.1-9.8,16.3-9.8,16.3
			L100,196.9z"/>
	</g>
	<g>
		<path class="st1" d="M100,185.5c-2.5,0-4.6-2.1-4.6-4.6V52.2c0-2.5,2.1-4.6,4.6-4.6s4.6,2.1,4.6,4.6v128.7
			C104.6,183.4,102.5,185.5,100,185.5z"/>
	</g>
</g>
</svg>
