<?xml version="1.0" encoding="utf-8"?>
<!-- Generator: Adobe Illustrator 23.0.3, SVG Export Plug-In . SVG Version: 6.00 Build 0)  -->
<svg version="1.1" id="Ebene_1" xmlns="http://www.w3.org/2000/svg" xmlns:xlink="http://www.w3.org/1999/xlink" x="0px" y="0px"
	 viewBox="0 0 500 500" style="enable-background:new 0 0 500 500;" xml:space="preserve">
<style type="text/css">
	.st0{fill:none;stroke:#E1402D;stroke-width:30;stroke-miterlimit:10;}
	.st1{fill:none;stroke:#FFDA00;stroke-width:30;stroke-miterlimit:10;}
	.st2{fill:none;stroke:#EA8603;stroke-width:30;stroke-miterlimit:10;}
	.st3{fill:none;stroke:#0A8642;stroke-width:30;stroke-miterlimit:10;}
	.st4{fill:none;stroke:#D5EB88;stroke-width:30;stroke-miterlimit:10;}
	.st5{fill:none;stroke:#FFFFFF;stroke-width:10;stroke-miterlimit:10;}
	.st6{display:none;}
	.st7{display:inline;}
	.st8{fill:#FFFFFF;}
	.st9{display:inline;fill:#D5EB88;}
	.st10{display:inline;fill:#0A8642;}
	.st11{display:inline;fill:#EA8602;}
	.st12{display:inline;fill:#FFFFFF;}
	.st13{display:inline;fill:#FFD902;}
	.st14{fill:#D5EB88;}
	.st15{fill:#0A8642;}
	.st16{fill:#EA8603;}
	.st17{fill:#FFDA00;}
	.st18{fill:#E1402E;}
	.st19{fill:none;}
</style>
<path class="st0" d="M83.5,304.1C106.3,374.3,172.2,425,250,425"/>
<path class="st1" d="M416.5,304.1C393.7,374.3,327.8,425,250,425"/>
<path class="st2" d="M352.9,108.4C396.6,140.2,425,191.7,425,250c0,18.9-3,37.1-8.5,54.1"/>
<path class="st3" d="M352.9,108.4C324,87.4,288.5,75,250,75s-74,12.4-102.9,33.4"/>
<path class="st4" d="M147.1,108.4C103.4,140.2,75,191.7,75,250c0,18.9,3,37.1,8.5,54.1"/>
<polyline class="st5" points="250,450 250,425 250,250 "/>
<polyline class="st5" points="250,250 416.5,304.1 440.2,311.8 "/>
<polyline class="st5" points="250,250 352.9,108.4 367.6,88.2 "/>
<polyline class="st5" points="250,250 147.1,108.4 132.4,88.2 "/>
<polyline class="st5" points="59.8,311.8 83.5,304.1 250,250 "/>
<g class="st6">
	<g class="st7">
		<polygon class="st8" points="207.7,77.8 113.6,69.5 153.5,155.2 		"/>
	</g>
	<polygon class="st9" points="186.6,87.7 119.3,81.7 147.8,143 	"/>
</g>
<g class="st6">
	<g class="st7">
		<polygon class="st8" points="398.1,153.4 376.8,61.4 307.7,125.8 		"/>
	</g>
	<polygon class="st10" points="382.1,136.4 367,70.5 317.6,116.6 	"/>
</g>
<g class="st6">
	<g class="st7">
		<polygon class="st8" points="387,360.6 468.1,312 385.4,266.1 		"/>
	</g>
	<polygon class="st11" points="398.4,340.2 456.3,305.4 397.2,272.6 	"/>
</g>
<g class="st6">
	<g>
		<polygon class="st12" points="178.5,413.2 249.9,475.2 267.9,382.5 		"/>
	</g>
	<polygon class="st13" points="201.5,417.7 252.4,462 265.3,395.7 	"/>
</g>
<g>
	<g>
		<polygon class="st8" points="204.8,56.6 107.6,62.2 164.1,145.1 		"/>
	</g>
	<polygon class="st14" points="180.7,85.7 125.8,88.8 157.7,135.7 	"/>
</g>
<g>
	<g>
		<polygon class="st8" points="419.6,146.5 384.3,55.8 323,135.1 		"/>
	</g>
	<polygon class="st15" points="384.5,132.6 364.6,81.3 329.9,126.2 	"/>
</g>
<g>
	<g>
		<polygon class="st8" points="399.8,378.2 475.2,316.6 380.7,282.8 		"/>
	</g>
	<polygon class="st16" points="402.2,340.5 444.8,305.7 391.4,286.6 	"/>
</g>
<g>
	<g>
		<polygon class="st8" points="173,432.2 254.8,484.8 257.8,384.6 		"/>
	</g>
	<polygon class="st17" points="209.5,422.8 255.8,452.6 257.5,395.9 	"/>
</g>
<g>
	<g>
		<polygon class="st8" points="53.6,235.5 28.8,329.6 125.1,301.5 		"/>
	</g>
	<polygon class="st18" points="73.8,267.3 59.8,320.5 114.2,304.6 	"/>
</g>
<g>
	<path id="SVGID_x5F_1_x5F_" class="st19" d="M52.2,314.3C79.2,397.7,157.5,458,250,458"/>
	<text>	<textPath  xlink:href="#SVGID_x5F_1_x5F_" startOffset="5.1758%">
<tspan  style="font-family:'IBMPlexSans-Bold'; font-size:11px;">                     Blumen und Kräuter</tspan>	</textPath>
</text>
	<path id="SVGID_x5F_2_x5F_" class="st19" d="M250,458c92.5,0,170.8-60.2,197.8-143.7"/>
	<text>	<textPath  xlink:href="#SVGID_x5F_2_x5F_" startOffset="1.0742%">
<tspan  style="font-family:'IBMPlexSans-Bold'; font-size:11px;">   Insektenhotel, Vogelhaus, Fledermauskasten</tspan>	</textPath>
</text>
	<path id="SVGID_x5F_3_x5F_" class="st19" d="M367.6,88.2c50,36.3,82.4,95.3,82.4,161.8c0,21.6-3.4,42.4-9.7,61.8"/>
	<text>	<textPath  xlink:href="#SVGID_x5F_3_x5F_" startOffset="0.3906%">
<tspan  style="font-family:'IBMPlexSans-Bold'; font-size:11px;">                            Feldgehölz</tspan>	</textPath>
</text>
	<path id="SVGID_x5F_4_x5F_" class="st19" d="M132.4,88.2C165.4,64.2,206,50,250,50s84.6,14.2,117.6,38.2"/>
	<text>	<textPath  xlink:href="#SVGID_x5F_4_x5F_" startOffset="0.6348%">
<tspan  style="font-family:'IBMPlexSans-Bold'; font-size:11px;">                                Obstbäume &amp; Sträucher</tspan>	</textPath>
</text>
	<path id="SVGID_x5F_5_x5F_" class="st19" d="M59.7,311.8C53.4,292.4,50,271.6,50,250c0-66.6,32.5-125.5,82.4-161.8"/>
	<text>	<textPath  xlink:href="#SVGID_x5F_5_x5F_" startOffset="0%">
<tspan  style="font-family:'IBMPlexSans-Bold'; font-size:11px;">                               Wiesen</tspan>	</textPath>
</text>
</g>
</svg>
