<?xml version="1.0" encoding="utf-8"?>
<!-- Generator: Adobe Illustrator 23.0.3, SVG Export Plug-In . SVG Version: 6.00 Build 0)  -->
<svg version="1.1" id="Ebene_1" xmlns="http://www.w3.org/2000/svg" xmlns:xlink="http://www.w3.org/1999/xlink" x="0px" y="0px"
	 viewBox="0 0 414 183" style="enable-background:new 0 0 414 183;" xml:space="preserve">
<style type="text/css">
	.st0{fill:none;stroke:#333333;stroke-width:5;stroke-linecap:round;stroke-miterlimit:10;}
	.st1{fill:none;stroke:#333333;stroke-width:5;stroke-linecap:round;stroke-miterlimit:10;stroke-dasharray:1.9891,9.9454;}
	.st2{fill:#E1402D;}
</style>
<g>
	<g>
		<path class="st0" d="M231,3c0,0-0.3,0-1,0"/>
		<path class="st1" d="M220.1,3.2C174.7,4.5,4,11.8,4,50c0,44,407,24,407,68c0,39.2-142.9,57-174.1,60.4"/>
		<path class="st0" d="M232,178.9c-0.7,0.1-1,0.1-1,0.1"/>
	</g>
</g>
<path class="st2" d="M231,117.5c-11.3,0-20.5,9.2-20.5,20.5s14.5,34.5,20.5,34.5s20.5-23.2,20.5-34.5S242.3,117.5,231,117.5z
	 M231,146c-4.4,0-8-3.6-8-8s3.6-8,8-8s8,3.6,8,8S235.4,146,231,146z"/>
</svg>
